<svg width="40" height="40" viewBox="0 0 40 40" fill="none" xmlns="http://www.w3.org/2000/svg">
    <!-- Heart shape -->
    <path d="M20 32.5C19.6 32.5 19.2 32.35 18.9 32.1C17.8 31.15 12 26.35 9.2 22.1C7.3 19.2 6 16.4 6 13.75C6 9.45 9.45 6 13.75 6C16.15 6 18.35 7.15 20 9C21.65 7.15 23.85 6 26.25 6C30.55 6 34 9.45 34 13.75C34 16.4 32.7 19.2 30.8 22.1C28 26.35 22.2 31.15 21.1 32.1C20.8 32.35 20.4 32.5 20 32.5Z" fill="white"/>
    <!-- Plus symbol -->
    <path d="M21.5 15.5H24.5V18.5H21.5V21.5H18.5V18.5H15.5V15.5H18.5V12.5H21.5V15.5Z" fill="#007bff"/>
</svg> 